<svg id="Layer_1" data-name="Layer 1" xmlns="http://www.w3.org/2000/svg" viewBox="0 0 599.1 555.8"><title>astro-with-browser2</title><rect x="41.26" y="5.5" width="367" height="221" rx="12" ry="12" fill="#b3bac4"/><path d="M408.26,214.5V17.5a12,12,0,0,0-7.51-11.11l-4.49,4.11v216A12,12,0,0,0,408.26,214.5Z" fill="#9099a5"/><rect x="38.76" y="10.5" width="365" height="221" rx="12" ry="12" fill="#e1e5ec"/><path d="M403.76,32.5v-10a12,12,0,0,0-12-12h-341a12,12,0,0,0-12,12v10Z" fill="#dadcd9"/><line x1="380.26" y1="19.5" x2="385.26" y2="25.5" fill="none" stroke="#b3bac4" stroke-miterlimit="10"/><line x1="385.26" y1="19.5" x2="380.26" y2="25.5" fill="none" stroke="#b3bac4" stroke-miterlimit="10"/><rect x="365.76" y="20" width="6" height="6" fill="none" stroke="#b3bac4" stroke-miterlimit="10"/><line x1="358.76" y1="23" x2="352.76" y2="23" fill="none" stroke="#b3bac4" stroke-miterlimit="10"/><rect x="21.72" y="30.51" width="367" height="221" rx="12" ry="12" fill="#b3bac4"/><path d="M388.72,239.51v-197a12,12,0,0,0-7.51-11.12l-4.49,4.12v216A12,12,0,0,0,388.72,239.51Z" fill="#9099a5"/><rect x="19.22" y="35.51" width="365" height="221" rx="12" ry="12" fill="#e1e5ec"/><path d="M384.22,57.51v-10a12,12,0,0,0-12-12h-341a12,12,0,0,0-12,12v10Z" fill="#dadcd9"/><line x1="360.72" y1="44.51" x2="365.72" y2="50.51" fill="none" stroke="#b3bac4" stroke-miterlimit="10"/><line x1="365.72" y1="44.51" x2="360.72" y2="50.51" fill="none" stroke="#b3bac4" stroke-miterlimit="10"/><rect x="346.22" y="45.01" width="6" height="6" fill="none" stroke="#b3bac4" stroke-miterlimit="10"/><line x1="339.22" y1="48.01" x2="333.22" y2="48.01" fill="none" stroke="#b3bac4" stroke-miterlimit="10"/><rect x="2.5" y="56.9" width="367" height="221" rx="12" ry="12" fill="#b3bac4"/><path d="M369.5,265.9V68.9A12.05,12.05,0,0,0,362,57.78L357.5,61.9v216A12,12,0,0,0,369.5,265.9Z" fill="#9099a5"/><rect y="61.9" width="365" height="221" rx="12" ry="12" fill="#e1e5ec"/><path d="M365,83.9v-10a12,12,0,0,0-12-12H12a12,12,0,0,0-12,12v10Z" fill="#dadcd9"/><line x1="341.5" y1="70.9" x2="346.5" y2="76.9" fill="none" stroke="#b3bac4" stroke-miterlimit="10"/><line x1="346.5" y1="70.9" x2="341.5" y2="76.9" fill="none" stroke="#b3bac4" stroke-miterlimit="10"/><rect x="327" y="71.4" width="6" height="6" fill="none" stroke="#b3bac4" stroke-miterlimit="10"/><line x1="320" y1="74.4" x2="314" y2="74.4" fill="none" stroke="#b3bac4" stroke-miterlimit="10"/><path d="M367.89,126s-12.44-14.08-9-32.5c2.67-14.34-6-3.5-7,0s0,5,0,8.5-3.1,6.88-6.6,3.38S326.51,95,323,92.52s-10,0-5.5,4l13,11.6s-7.81-2.28-11.31-5.49c-3-2.72-8.39-3.77-7.71.35.92,5.51,7.36,7.52,11.36,11s2.5,6.5-.5,4.5-7.33-3.57-9.83-5.07-3.77,3.43.51,6c4.07,2.44,6.1,4.65,9.6,5.65s-2.4,1.88-8.91.17c-2.94-.77-3.37,2.25,3.13,6.25s16.5,8,36.5,9S367.89,126,367.89,126Z" fill="#99abb7"/><path d="M539.68,91.92a7.33,7.33,0,0,0-11.46-5.13c-12.44,8.67-33.38,21.93-43.13,20.44-14.35-2.21-32-6.63-37.53,7.72s-14.36,24.29-22.08,24.29-24.29,2.21-27.6-4.41-21-15.46-28.71-17.67-29.81,11-29.81,18.77-2.2,36.43,14.36,44.16,26.49,12.14,29.8,6.62,5.52-12.14,13.25-4.41c6.3,6.3,24.33,8.93,36.17,9.09a7.32,7.32,0,0,1,7.24,7.22c.19,15.43-2.23,50.87-26.85,68.69-32,23.19-60.72,44.16-64,72.87-2.88,25-14.15,101.11-17,120.31a7.3,7.3,0,0,1-4.91,5.86c-11.19,3.77-41.35,14-52.06,18.45-13.25,5.52-8.83,28.71,8.83,34.23s73.7-3.64,76-7.43c3.13-5.22,8.29-15.17,13.95-33.93,2.39-7.9,9.41-29.73,9.81-21.49,0,.22,1.84,27.3,1.85,27.52,1.11,22.08-7.73,35.33-23.18,41.95s-40.85,28.7-14.35,29.81c21.8.91,61.53-12.38,74.93-17.12A7.32,7.32,0,0,0,428,531.9l9.36-142.53a7.32,7.32,0,0,1,3.63-5.85c15.73-9.13,81.83-49.63,99.3-95.24C556.79,245.21,544.38,129.87,539.68,91.92Z" fill="#9badb9"/><path d="M416.27,181.36c-28-11.05-30.16-10.2-32.71-5.53-1.68,3.09-1.15,8.38-.59,11.63a4.27,4.27,0,0,0,.55-.75c3.32-5.52,5.52-12.14,13.25-4.41,6.3,6.3,24.33,8.93,36.17,9.09a7.35,7.35,0,0,1,2.35.42.4.4,0,0,0,.15,0c6.5-.15,12.66-.49,17.79-1.14a242.28,242.28,0,0,0,33.2-6.54.46.46,0,0,0-.2-.9C470.84,185.73,437.33,189.65,416.27,181.36Z" fill="#718898"/><path d="M409.35,395.21s-24.21-6.13-28.53,4.37S358.68,488,358,495.94c-.57,6.48,6.5,7.75,6.5,7.75s7.48-16.86,9.67-26.29C376.24,468.28,409.35,395.21,409.35,395.21Z" fill="#e4e9f4"/><ellipse cx="474.37" cy="61.51" rx="38" ry="44.5" fill="#d64e5a"/><path d="M492.88,0c-27,0-49.53,19-54.48,44.08,5.79-15.92,19.27-27.08,35-27.08,21,0,38,19.93,38,44.51,0,24.09-16.36,43.7-36.78,44.46a56.35,56.35,0,0,0,18.28,3c30.65,0,55.5-24.4,55.5-54.5S523.53,0,492.88,0Z" fill="#cfd6e1"/><rect x="512.09" y="108.71" width="73.01" height="265.03" rx="12" ry="12" fill="#6d8798"/><path d="M599.1,317.25V70.2a7.5,7.5,0,0,0-15,0V367.14C590.34,360.06,597.78,345.73,599.1,317.25Z" fill="#e1e5ed"/><path d="M573.1,120.71h-47a12,12,0,0,1-12-12l13-38a12,12,0,0,1,12-12h47a12,12,0,0,1,12,12l-13,38A12,12,0,0,1,573.1,120.71Z" fill="#99adb8"/><path d="M347.64,555.75c22,.91,62.05-12.43,75.56-17.19a7.35,7.35,0,0,0,4.91-6.45l9.11-137.95c-.68-4.39-2.13-7.77-4.94-8.17-8.72-1.24-12.46.62-24.3,1.24s-9.34,22.33-16.82,32.25c-4.33,5.75-6.31,23.77-7.78,36.53,0,0,0-.05,0,0,0,.22,2.1,27.48,2.11,27.7,1.11,22.17-7.79,35.47-23.38,42.12S320.92,554.64,347.64,555.75Z" fill="#708b9c"/><path d="M428.11,532.11l9.11-137.95c-.56-3.61-1.64-6.53-3.58-7.68-4.71,15-11.48,43.64-12.11,85.66-1,65-2,54.9-1.63,60.45s-1.56,6.06,3.3,6A7.35,7.35,0,0,0,428.11,532.11Z" fill="#e4e9f4"/><path d="M438.69,100C435.23,92,440.22,78,425.07,71.44s-17.27-3.84-16.69-.77S411.24,80,414.5,81.9c2.92,1.71,6.29,9.4,5.46,12.93,0,2.8-1.27,5.31-5.46,6.07,0,0-15.84-11.82-19-9s-2.18,4.29.41,6.65,10.59,5.35,12.59,9.35a9.69,9.69,0,0,0,5.64,4.73,22.7,22.7,0,0,0,3.45.62c7.86.77,7.67,7.29,12.66,10.94S458.44,142,458.44,142l19.76-20.91S442.14,108.08,438.69,100Z" fill="#99abb7"/></svg>
