<svg id="Layer_1" data-name="Layer 1" xmlns="http://www.w3.org/2000/svg" viewBox="0 0 444.73 280.81"><title>singer-flying</title><path d="M418,259.44s2.67,13.33-.66,17.33c0,0-2,10.67,4.66-2.66s2.67-9.34,2.67-9.34l2.67,13.34,11.33-2.67s5.33-11.33,6-14.67-4.67-5.33-8-8.66-40-20-56.67-25.34-40-10.66-40-10.66l1.34,18.66s32.66,12,48.66,14.67S412.67,255.44,418,259.44Z" fill="#5b3a29"/><path d="M254,120.93a2.53,2.53,0,0,0,.9-2.07c-.52-8.82-3.37-61.65,2.74-71.42,3.56-5.69,21.1-9.33,27.37-10.39,2.55-.44-1.21-3-3.65-3.85-3.81-1.39-13.93-2.43-17.05-2.43-7.34,0-20.27-2.64-21.6,2s.75,8.71,1.42,15.38-15.82,61.26-13.82,76.59C232.09,138.19,249.66,124.55,254,120.93Z" fill="#5b3a29"/><path d="M85.67,125.43s7.07-4,5.26-11.59c-2.38-10-8.88-4.52-14.12-22.58-2-6.9-18.42-10.4-14.32-1.14,5.62,12.68,11.41,17.93,12.6,25.43a72.84,72.84,0,0,1,.8,14.23Z" fill="#a93247"/><path d="M35.44,124S30,118.07,23,121.53c-9.12,4.55-2.39,9.55-18.7,18.69-6.23,3.49-5.94,20.05,2.1,14,11-8.27,14.8-15,21.81-17.88a73.6,73.6,0,0,1,13.59-4Z" fill="#a93247"/><path d="M195.27,229.79s1.56-28.83-31.16-31.94-56.88-23.38-59.21-28-13.25-31.17-11.69-39,3.12-13.24,3.12-13.24-14.81,11.69-21.82,4.67L64.38,148s-7.79-10.9-15.58-17.14S11.4,130.06,18.41,148s17.92,77.14,24.94,87.27,12.46,12.46,28.82,12.46,49.09,7,60.77,11.69,63.89,24.15,80.25,9.35S195.27,229.79,195.27,229.79Z" fill="#040017"/><path d="M231.78,257.36s-35.73,23.85-59.1-5.75c-12.37-15.67,19.48-35.06,19.48-35.06Z" fill="#5b3a29"/><path d="M265,191.44s14-13.33,8-28.67-6.66-20.66-10-21.33-4.66-4-3.33-9.33.67-7.34-.67-12-.66-18.67-9.33-13.34S235,115.44,233,111.44s-14.66.67-14,10.67,0,60-26.66,84.66l-10,14s13.33,32,24.66,38,13.34,6,26-.66,39.34-32,62-24.67,40.67,9.33,47.34,9.33,18-15.33,12.66-22.66-15.55-6.45-28-10c-14-4-25.33-13.34-34.66-16C285.93,192.27,265,191.44,265,191.44Z" fill="#a93247"/><path d="M300.05,183.57s49.05.89,40.13-63.32,2.67-64.2,12.48-65.1,35.67-5.35,35.67-5.35L358,46.24l3.57-7.14-14.27,8,13.38-16.94-33,37.45s2.68-32.1,16.95-37.45S317,65,317,65s15.16-43.69,22.3-47.26S324.13,21.27,317,47.13,319.67,7,325.91.76s-23.18,27.64-22.29,42.8.89-25,.89-25-14.27,33.89-14.27,40.13-.89-23.18-.89-23.18S284,39.1,283.11,52.48s-12.49,0-16.05,4.46-13.38,12.48-10.71,31.21,16.06,59.75,16.06,59.75Z" fill="#321c0f"/><path d="M305.62,177.87s-9.83,3.91-12.51,14.61-33.89,1.79-29.43-5.35,17.84-18.72,17.84-18.72Z" fill="#4c2f20"/><path d="M317.52,157.83c3-16.28-10.08-29.35-21.08-21.35-9.46,6.88-20.38,18.33-20,34.35.59,23.61,22.42,12.15,29.36,7.9a14.8,14.8,0,0,0,4.2-3.92A41.9,41.9,0,0,0,317.52,157.83Z" fill="#573927"/></svg>
