<svg id="Layer_1" data-name="Layer 1" xmlns="http://www.w3.org/2000/svg" viewBox="0 0 397.62 304.75"><title>goth-dancer</title><path d="M294.07,55.69,270.57,34l5.95-16.48L250.74,9.58s-16.53,17.19-4.63,33.05c5,6.62,9.57,7.48,13.27,6.25l6.69,25.81Z" fill="#99adb8"/><path d="M345.42,69.66l11.73.34L376,36.57a12.8,12.8,0,0,0,1.67-5.85c.17-4,.54-10.7,1.23-13,1-3.35,9.39-5,9.39-5s-2.23,4.65-5.25,7c0,0,9.94-5.32,12.62-5s2.35,6.71.33,8.72-1,3.68-1,6-5.7,7-10.39,9.72-13.4,36.52-17.09,43.56-30.49,4.69-30.49,4.69Z" fill="#9aaeb9"/><path d="M214.08,140.74,268,165.2s-7.26,36.1-40.21,26.81c-36.86-10.39-72-19.1-79.42-22.79S120,216.42,59.47,221a2.67,2.67,0,0,0-2.36,1.79c-.92,2.67-3.24,7.42-7.91,5.71-6.36-2.35-7.7-10.06-21.78-10.06s-11.39,1-19.1.34-10.25-10.13-.67-10.73c13.05-.81,37.53,2.69,46.25-2,8.35-4.5,55.89-35.83,70.39-60.56a10,10,0,0,1,7.49-4.89A68.18,68.18,0,0,1,143,140.4C181.54,142.24,192.63,141.07,214.08,140.74Z" fill="#040017"/><path d="M198,68.37a11.37,11.37,0,0,0-2,1c-3.61,2.34-16.16,10.65-16.7,13.89-.63,3.79,5.05,54.87,5.05,54.87s-1.26,13.88,3.78,17.66,8,3.37,9.92,5.89,7,6,3-1c-2.27-4-3.82-6.38-4.85-7.82A1.17,1.17,0,0,1,197.3,151l3.85.38a.61.61,0,0,0,.14-1.19c-3.75-1.19-10.85-4.9-11.24-10.83-.63-9.46.63-45.41,2.52-51.08s29.5-13.63,29.5-13.63l-11.84-11Z" fill="#9aaeb9"/><path d="M202.07,66.69s12,3,6,13c0,0,18.34-5.71,24.57-7.35s1.64,1.31-.66,6.56S227.07,91,232,99.56s-5.33,20-9.83,21.32c-6.08,1.81-23.62,21.64-23.62,21.64s26.24,46.57,34.11,49.85,33.13-6.55,35.75-24.59S290,89.72,300.2,89.07s45.87-1.38,45.87-1.38-5.54-9.47,2-18L316.6,58.56S259.21,44.46,249,47.41,210.93,63.74,202.07,66.69Z" fill="#030115"/><path d="M245.07,17.69s1-16,20-14c19.32,2,20.29,16.77,27,28.35S310,48,315.26,50.85s10.13,21.22-4.82,33.76-28.37,29.29-28.37,35.08c0,0-18.89-61.91-16-73s-1-16-1-16,2.93,2.31,6.3-.58.48-10.13-4.34-8.2-7.31,6.23-8.2-.49C258.07,15.69,251.07,10.69,245.07,17.69Z" fill="#030115"/><path d="M146.16,167.84s22.7,66,23.41,75.57,1.42,55,9.23,57.47,7.09,9.57,6.38-5.33-.71-29.09,2.84-32.28,5-8.87-.36-12.77-8.86-5-7.8-16.67-1.06-52.86-6-69.89S146.16,167.84,146.16,167.84Z" fill="#040017"/></svg>
