<svg id="Layer_1" data-name="Layer 1" xmlns="http://www.w3.org/2000/svg" viewBox="0 0 809.4 457.58"><title>astros-browser</title><path d="M47.3,375.45S46.24,364,39.88,362.94s-13.78,4.17-13.78,9.38A159.54,159.54,0,0,1,25,393.17c-1.06,8.34-6.36,18.77-2.12,25s13.78,3.13,14.84,0S42,392.13,42,392.13Z" fill="#516b7c"/><path d="M67.12,365.21s-6.66-9.4-12.69-7.12-9.84,10.51-7.23,15a158.28,158.28,0,0,1,9.51,18.58c3.26,7.75,3.89,19.43,10.69,22.72s13.5-4.18,12.85-7.42-9.37-24.69-9.37-24.69Z" fill="#516b7c"/><path d="M25.3,123.81s-8-2-5.47,21.32C22.39,168.67,55.56,165,55.56,165l6.74-48.19Z" fill="#6c8697"/><path d="M19.3,137.81l-8,160,23,30s0,1,6,2,9-170,9-170l30-17s-22,14-30,11S19.3,137.81,19.3,137.81Z" fill="#99adb8"/><path d="M215.3,151.81c-8-9-10-14-22-16s-16,0-16,0a92,92,0,0,0-3-9c-.76-1.53-3.84-3-6.59,2.93l.72-10.07,3.5-5.65a12.29,12.29,0,0,0,1.71-4.8l.89-6.64a8.89,8.89,0,0,0-4.23-8.77v-5l-48-25-70,39-11,227H141.59c5.08,23.82,12.3,61.22,7.71,75-5,15-20,24-25,18s-9-44-8-58-4-21-4-21,1,14,0,24-3,17,0,26,3,11,1,20,0,15,10,19,9,7,15,7,15-3,16-6,1,0,1-11,7-25,8-34,2-21,1-30-1-19-5-40,0-15,2-26,.24-1.73-2.88-22.87c-.24-1.64-.4-3.08-.5-4.38l.57-7.83c1.75-5.34,6.2-4.05,4.81-15.92-2-17,1-30,7-38s20-17,30-23,9-4,14-3,11,1,12-6,7-11,15-12a19,19,0,0,0,12-6S223.3,160.81,215.3,151.81Z" fill="#6c8697"/><path d="M112.3,431.81s16,12,25,11,14-5,14-5,1-32,9-44-3-70-6-77,10-48,9-55-9-44,6-54,68-48,68-48l-10-31-34,14-18-4v-13h-10s11-20,4-28-54-17-64-7-15,43-21,48-53.32,46.34-50,49c10,8,33,29,33,29s-14,12-13,43-4,78-2,86,7,35,7,35l-14-14a16.43,16.43,0,0,0-11,8c-4,7-7,10,0,17s15,51,38,59,34,10,36,0S112.3,431.81,112.3,431.81Z" fill="#9bacb7"/><path d="M186.94,140.88l-4.64,27.93,75-12-9.12-21A8.6,8.6,0,0,0,237.81,131s-53.05,11.25-31.78,4.52S186.94,140.88,186.94,140.88Z" fill="#e1e5ec"/><polygon points="130.09 67.86 122.3 63.8 108.51 72 130.09 67.86" fill="#6c8697"/><path d="M215.3,151.81c-8-9-10-14-22-16s-16,0-16,0a92,92,0,0,0-3-9c-.76-1.53-3.84-3-6.59,2.93l.72-10.07,3.5-5.65a12.29,12.29,0,0,0,1.71-4.8l.73-5.45c-9.74,21.78-28.07,64.88-28.07,81,0,22-6,41,0,50s6,34,2,41c-3.23,5.64-8.41,35.36-7.14,54h.43c5.08,23.82,12.3,61.22,7.71,75-5,15-20,24-25,18s-9-44-8-58a46.28,46.28,0,0,0-.25-9.47l-3.31,1a113.63,113.63,0,0,1-.44,11.48c-1,10-3,17,0,26s3,11,1,20,0,15,10,19,9,7,15,7,15-3,16-6,1,0,1-11,7-25,8-34,2-21,1-30-1-19-5-40,0-15,2-26,.24-1.73-2.88-22.87c-.24-1.64-.4-3.08-.5-4.38l.57-7.83c1.75-5.34,6.2-4.05,4.81-15.92-2-17,1-30,7-38s20-17,30-23,9-4,14-3,11,1,12-6,7-11,15-12a19,19,0,0,0,12-6S223.3,160.81,215.3,151.81Z" fill="#6c8697"/><ellipse cx="129.8" cy="119.81" rx="35.5" ry="39" fill="#d64e5a"/><path d="M107.3,136.81c4.92-29.51,23.14-43.29,40.39-49.69a33,33,0,0,0-17.89-5.31c-19.61,0-35.5,17.46-35.5,39a40.46,40.46,0,0,0,13.16,30.3A40.84,40.84,0,0,1,107.3,136.81Z" fill="#b7353e"/><path d="M53.3,101.81l-17-6-5,26s-6,1-9,3-1.56,5.71,3,8c4,2,25,13,25,13Z" fill="#99adb8"/><path d="M121.3,84.81s19-1,27,1,17,10,24,5-8-11-16-16-32-24-63-11-47,22-55,29,2,5,8,7,12,9,22-1,13-7,15-1-18,54-30,56-43,30-50,38-2,20,7,17,12-1,15,6,4.09,17.3,8,16c3-1,0-18,0-18s8,17,11,16c6-2-4-20-4-20s15,22,16,16c1.31-7.9-7-22-7-22s9,15,15,15,5-3,2-7c-4.69-6.25-15-30-24-29-16,1.78-11,2-11,2s13-7,30-21,29-13,31-39S108.3,84.81,121.3,84.81Z" fill="#e1e5ec"/><path d="M778.3,250.81l-8-50s-1.43-4.94-3.79-13l-.21,0a67.65,67.65,0,0,0-4-14.37c-12-40.61-34-113.24-40.86-124.28-.56-1.75-.95-2.92-1.12-3.35-2-5-4-5-8-6s-4,0-4,0c-2-8-11-26-11-26l-12,3h-18l-26,3-55,7s-10,13-11,16,1,3,1,5,2,11,6,16,7,3,7,3l4,23,119,100,33,72Z" fill="#99abb7"/><ellipse cx="623.53" cy="63.47" rx="32.77" ry="37.35" transform="translate(34.7 278.16) rotate(-25.84)" fill="#d64e5a"/><path d="M611.3,47.81c11-2,27,3,35,12a54.14,54.14,0,0,0,10.86,9.37,41.14,41.14,0,0,0-4.15-20C644,30.62,623.53,22,607.24,29.85a30.09,30.09,0,0,0-14.31,15C596.32,49.73,603.87,49.16,611.3,47.81Z" fill="#b9373f"/><path d="M685.3,18.81l10,42s20-17,22-19,5,2,3,4-23,19-24,20-1,1-5,0-24,1-24,1l-10-17-5-12,1-20,9-4Z" fill="#6b8596"/><path d="M711.3,103.81s-33-7-44-9-9,11,0,17,43,24,44,34,7,64,7,64l11-10Z" fill="#6b8596"/><polygon points="711.3 51.8 755.3 209.81 745.3 197.81 708.3 54.8 711.3 51.8" fill="#6b8596"/><path d="M743.3,110.81s27,0,10-14-40-21-45-23-38-6-41-12-4-9-7-12-4-4-2-6,0-10-1-15,1-9,7-8,14,3,18,3,5,0,8-2,5-2,7-4,0-5-5-6-40-5-45-8-19-5-25-3a88.65,88.65,0,0,0-17,8c-5,3-8,4-11,9s-10,10-12,13-12,13,0,9,28-10,36-12,13-1,17,1,11,6,14,12,13,28,24,32,37,13,40,16,5,6,0,11-11,21-11,26,2,10,6,5c2.25-2.82,1.38-9.78,3-13,2-4,0,1,0,5v11c0,6,6.41,3.94,7,1,1-5,0-11,4-16,2.67-3.34.85.35,0,4a37.77,37.77,0,0,0-1,6c0,4,0,6,1,9s5,2,6-2a67.3,67.3,0,0,0,2-15c0-3,1,3,0,7s3,11,5,6c1.66-4.16,3.9-6,3-15C737.3,108.81,743.3,110.81,743.3,110.81Z" fill="#e0e4eb"/><path d="M765.3,263.81a65.89,65.89,0,0,1,3,10c1,5-7,11-11,7s-10-20-10-20Z" fill="#526c7d"/><path d="M698.3,245.81s-13,62-21,66-10,9-14,9-15,0-16-2-7-16-7-20-8-11-11-17-11-43-11-43Z" fill="#6c8697"/><path d="M739.3,251.81s-4,39-9,47-8,22-15,24-27,10-30-8-6-22-8-29-7-38-7-38Z" fill="#99abb7"/><path d="M634.3,245.81s4,41,10,47,3,15,16,10,9-13,9-18-5-42-5-42Z" fill="#98acb8"/><path d="M809.3,216.68l-7-.87-17.73-12.67L284.3,200.81s-9.57,53.9-5,60c3,4,8,3,11,3h507c14,0,12-7,12-7Z" fill="#6c8697"/><path d="M219.3,104.81s-1-28,0-35-.76-6,25.62-6,28.38,39,28.38,39l15,106s-7,4-7,15-2,37-2,37Z" fill="#9dacb7"/><path d="M556.3,63.81h-331s-4-1,0,8,51,129,57,136,15,12,36,12,476,1,485,0,7-5,0-9-235-139-241-143Z" fill="#e1e5ec"/><ellipse cx="307.3" cy="194.81" rx="6" ry="3" fill="#d64f5b"/><ellipse cx="294.3" cy="169.81" rx="6" ry="3" fill="#e6bc80"/><path d="M423,177.7H380.72a1.48,1.48,0,0,1-1.25-.67l-51.93-79a1.46,1.46,0,0,1,1.25-2.26h35.78a1.49,1.49,0,0,1,1.2.6l58.42,79A1.47,1.47,0,0,1,423,177.7Z" fill="#cfd6df"/><path d="M512.52,176.61H469.16a1.53,1.53,0,0,1-1.25-.67L410.52,98.07a1.46,1.46,0,0,1,1.25-2.26h35.78a1.48,1.48,0,0,1,1.2.6l65,77.86A1.48,1.48,0,0,1,512.52,176.61Z" fill="#cfd6df"/><path d="M613.76,164H564c-2.19,0-3.28-1.09-4.37-2.18l-55-54.82a1.5,1.5,0,0,1,1.29-2.32h42.55a1.54,1.54,0,0,1,1.24.62L615,161.57A1.5,1.5,0,0,1,613.76,164Z" fill="#448eea"/></svg>
