<svg xmlns="http://www.w3.org/2000/svg" width="189.79" height="130.76" viewBox="0 0 189.79 130.76">
  <title>deployment</title>
  <circle cx="169.74" cy="110.71" r="20.06" fill="#fafaf8"/>
  <g>
    <path d="M182.12,104.42a21.89,21.89,0,0,1-43.77,0c0-12.09,9.8-20.89,21.89-20.89S182.12,92.33,182.12,104.42Z" fill="#fafaf8"/>
    <path d="M161.16,93.21v5.72l8-6.61-8-6.88v5c-8.32,0-14.6,6.53-14.6,14a14.36,14.36,0,0,0,3.95,9.31l1.87-1.85a11.38,11.38,0,0,1-3-7.46C149.33,98.44,155.61,93.21,161.16,93.21Z" fill="#448fea"/>
    <path d="M173.5,104.94c0-3.32-.34-6.53-2.52-9l-1.74,1.82c1.74,2,1.3,4.56,1.3,7.22,0,5.13-4.76,9.41-9.76,10.62v-4.64l-7.8,6.44,7.8,6.93v-5.81C168.78,117.34,173.5,111.72,173.5,104.94Z" fill="#448fea"/>
  </g>
  <path d="M178.55,95.89a31.21,31.21,0,0,0,4.18-15.45c0-16.12-11.78-28.91-27.19-31.34A29.44,29.44,0,0,0,156.81,41c-.4-20.06-18.47-37.56-40-39.27C95.66,0,80.19,9.38,74.28,26.73l0,0a28.26,28.26,0,0,0-12.72-2.95C48,23.76,37.06,32.82,37.06,44a14.23,14.23,0,0,0,1.1,5.12h0a32.45,32.45,0,0,0-5.29-.43C15.05,48.69,1.5,61.47,1.5,79.32c0,15.47,11.54,31.22,26.27,33.17H88.56V93H76L93.44,66l16.79,27H97.48v19.51h44.16" fill="none" stroke="#448fea" stroke-miterlimit="10" stroke-width="3"/>
</svg>
