<svg xmlns="http://www.w3.org/2000/svg" width="144.52" height="135.93" viewBox="0 0 144.52 135.93">
  <title>Asset 5</title>
  <g>
    <g>
      <path d="M28.35,18.56a3.71,3.71,0,1,0-4.19,0,4.56,4.56,0,0,0-.72.33,5.63,5.63,0,0,0-2.65-2.56,3.71,3.71,0,1,0-4.45,0,5.76,5.76,0,0,0-2.85,5.13v.77h7.81A5.1,5.1,0,0,0,21.1,24v.77H31.26V24C31.26,21,30.33,19.23,28.35,18.56Zm-4.56-3A2.44,2.44,0,1,1,26.23,18,2.45,2.45,0,0,1,23.79,15.51Zm-7.68-2.1a2.44,2.44,0,1,1,2.44,2.44A2.45,2.45,0,0,1,16.11,13.42ZM21.69,21h-7c.24-2.54,1.55-3.81,3.77-3.81a4.4,4.4,0,0,1,4,2.64C22.14,20.15,21.89,21,21.69,21Zm.6,2.54c.17-2.54,1.47-3.89,4-3.89,1.75,0,3.54.08,3.73,3.89Z" fill="#448fea"/>
      <g>
        <rect x="101.2" y="63.54" width="41.81" height="33.52" fill="none" stroke="#448fea" stroke-miterlimit="10" stroke-width="3"/>
        <g>
          <text transform="translate(107.84 86.65) scale(0.73 1)" font-size="23.22" fill="#448fea" font-family="Open Sans" letter-spacing="-0.1em">&lt;<tspan x="13.47" y="0" xml:space="preserve" letter-spacing="-0.08em">  &gt;</tspan></text>
          <polygon points="120.81 85.83 119.35 85.27 124.29 72.5 125.75 73.07 120.81 85.83" fill="#448fea"/>
        </g>
      </g>
      <rect x="1.5" y="1.5" width="41.74" height="33.46" fill="none" stroke="#448fea" stroke-miterlimit="10" stroke-width="3"/>
      <rect x="1.56" y="100.97" width="41.74" height="33.46" fill="none" stroke="#448fea" stroke-miterlimit="10" stroke-width="3"/>
      <line x1="12.04" y1="113.32" x2="28.82" y2="113.32" fill="none" stroke="#448fea" stroke-miterlimit="10" stroke-width="2"/>
      <line x1="17.2" y1="121.19" x2="33.98" y2="121.19" fill="none" stroke="#448fea" stroke-miterlimit="10" stroke-width="2"/>
    </g>
    <line x1="22.26" y1="34.96" x2="22.26" y2="100.63" fill="none" stroke="#448fea" stroke-miterlimit="10" stroke-width="3"/>
    <line x1="122.11" y1="97.06" x2="123.11" y2="118.67" fill="none" stroke="#448fea" stroke-miterlimit="10" stroke-width="3"/>
    <line x1="123.11" y1="117.7" x2="43.3" y2="117.7" fill="none" stroke="#448fea" stroke-miterlimit="10" stroke-width="3"/>
    <line x1="122.11" y1="62.66" x2="122.11" y2="16.85" fill="none" stroke="#448fea" stroke-miterlimit="10" stroke-width="3"/>
    <line x1="43.24" y1="17.81" x2="122.11" y2="17.81" fill="none" stroke="#448fea" stroke-miterlimit="10" stroke-width="3"/>
  </g>
</svg>
