<svg xmlns="http://www.w3.org/2000/svg" width="142.71" height="137.72" viewBox="0 0 142.71 137.72">
  <title>Asset 6</title>
  <g>
    <rect x="57.48" y="55.48" width="27.09" height="27.09" fill="none" stroke="#448fea" stroke-miterlimit="10" stroke-width="3"/>
    <g>
      <line x1="71.03" y1="55.73" x2="71.03" y2="32.18" fill="none" stroke="#448fea" stroke-miterlimit="10" stroke-width="3"/>
      <line x1="65.57" y1="20.89" x2="58.4" y2="13.73" fill="none" stroke="#448fea" stroke-miterlimit="10" stroke-width="3"/>
      <rect x="64.25" y="19.2" width="13.55" height="13.55" fill="none" stroke="#448fea" stroke-miterlimit="10" stroke-width="3"/>
      <rect x="46.18" y="1.5" width="13.55" height="13.55" fill="none" stroke="#448fea" stroke-miterlimit="10" stroke-width="3"/>
      <line x1="76.72" y1="21.01" x2="84" y2="13.73" fill="none" stroke="#448fea" stroke-miterlimit="10" stroke-width="3"/>
      <rect x="82.68" y="1.5" width="13.55" height="13.55" transform="translate(178.91 16.55) rotate(-180)" fill="none" stroke="#448fea" stroke-miterlimit="10" stroke-width="3"/>
    </g>
    <g>
      <line x1="84.27" y1="68.85" x2="109.63" y2="68.85" fill="none" stroke="#448fea" stroke-miterlimit="10" stroke-width="3"/>
      <line x1="121.82" y1="63.39" x2="128.98" y2="56.23" fill="none" stroke="#448fea" stroke-miterlimit="10" stroke-width="3"/>
      <rect x="109.96" y="62.08" width="13.55" height="13.55" transform="translate(185.59 -47.89) rotate(90)" fill="none" stroke="#448fea" stroke-miterlimit="10" stroke-width="3"/>
      <rect x="127.66" y="44" width="13.55" height="13.55" transform="translate(185.21 -83.66) rotate(90)" fill="none" stroke="#448fea" stroke-miterlimit="10" stroke-width="3"/>
      <line x1="121.7" y1="74.55" x2="128.98" y2="81.83" fill="none" stroke="#448fea" stroke-miterlimit="10" stroke-width="3"/>
      <rect x="127.66" y="80.51" width="13.55" height="13.55" transform="translate(47.15 221.72) rotate(-90)" fill="none" stroke="#448fea" stroke-miterlimit="10" stroke-width="3"/>
    </g>
    <g>
      <line x1="71.2" y1="81.99" x2="71.2" y2="105.54" fill="none" stroke="#448fea" stroke-miterlimit="10" stroke-width="3"/>
      <line x1="76.66" y1="116.83" x2="83.82" y2="123.99" fill="none" stroke="#448fea" stroke-miterlimit="10" stroke-width="3"/>
      <rect x="64.43" y="104.97" width="13.55" height="13.55" transform="translate(142.41 223.49) rotate(180)" fill="none" stroke="#448fea" stroke-miterlimit="10" stroke-width="3"/>
      <rect x="82.51" y="122.67" width="13.55" height="13.55" transform="translate(178.56 258.89) rotate(180)" fill="none" stroke="#448fea" stroke-miterlimit="10" stroke-width="3"/>
      <line x1="65.5" y1="116.71" x2="58.23" y2="123.99" fill="none" stroke="#448fea" stroke-miterlimit="10" stroke-width="3"/>
      <rect x="46" y="122.67" width="13.55" height="13.55" fill="none" stroke="#448fea" stroke-miterlimit="10" stroke-width="3"/>
    </g>
    <g>
      <line x1="57.54" y1="69.03" x2="32.18" y2="69.03" fill="none" stroke="#448fea" stroke-miterlimit="10" stroke-width="3"/>
      <line x1="20.89" y1="74.48" x2="13.73" y2="81.65" fill="none" stroke="#448fea" stroke-miterlimit="10" stroke-width="3"/>
      <rect x="19.2" y="62.26" width="13.55" height="13.55" transform="translate(-43.06 95) rotate(-90)" fill="none" stroke="#448fea" stroke-miterlimit="10" stroke-width="3"/>
      <rect x="1.5" y="80.33" width="13.55" height="13.55" transform="translate(-78.83 95.38) rotate(-90)" fill="none" stroke="#448fea" stroke-miterlimit="10" stroke-width="3"/>
      <line x1="21.01" y1="63.33" x2="13.73" y2="56.05" fill="none" stroke="#448fea" stroke-miterlimit="10" stroke-width="3"/>
      <rect x="1.5" y="43.82" width="13.55" height="13.55" transform="translate(58.87 42.32) rotate(90)" fill="none" stroke="#448fea" stroke-miterlimit="10" stroke-width="3"/>
    </g>
  </g>
</svg>
