<svg id="Layer_1" data-name="Layer 1" xmlns="http://www.w3.org/2000/svg" viewBox="0 0 449.85 543.56"><title>singers</title><path d="M184.12,468.94s1.84-12.49,10.6-15.78c9.43-3.54,17.68,2.36,19.84,7.58,0,0,16.31-8.66,21.07,8.2,3.86,13.67-7,37.84-8,46.21-1.37,12.13-.69,23.06-3.33,26.61-3.49,4.7-14.29-.22-16.63-9.59S206.5,504,206.5,504Z" fill="#0b062d"/><path d="M167.63,21l-61,9-4,82s.49,28.5,11.49,32.5,23.51-7.5,31.51-21.5,8-38,12-41,16-26,16-35S167.63,21,167.63,21Z" fill="#5a3928"/><path d="M164.63,14s-32-27-51-6-39,50-28,83,20.49,31.5,18.49,25.5S111.63,37,130.63,37s18,1,25-2,14-9,14-9-6,12-3,22-9.75,36.19-14.75,42.19S144.63,123,144.63,123s8-12,12-12,13-5,13-8-1-9,0-16,6-30,10-36,5-27,0-32S169.63,7,164.63,14Z" fill="#311a14"/><path d="M81.63,298s-35,85-36,110,1,94,8,105,77,21,99,16,49-22,51-27,7-39,0-44c0,0-48,0-55,16,0,0,13-20,18-34s28-44,30-69-1-56-13-73S81.63,298,81.63,298Z" fill="#040017"/><path d="M122.63,137c-17.52,4.12-24-8-24-20s-4-23-13-22-25,11-24,19-5,0-12,3-15,3-15,7,11,40,20,42,10-9,16-10-3,11-1,23,12,22,15,33,1,53-1,63-11,28-9,32,20-2,35,0,13,12,38,10,41-16,42-19,0-104,0-104l23-61-18.51-28.5s-16.49,9.5-19.49,8.5-11-9-16-8S139.63,133,122.63,137Z" fill="#b33644"/><path d="M151.81,102.9s-.6-7.52-8.12-5.71c0,0-1.5-9.33-4.51-9.93s-13.23-1.2-15.34-2.71-11.43,1.81-11.13,6.92-5.41,11.43-5.41,11.43v9.62s-7.82,1.81-9.93,5.42S52.13,135.59,41.44,139c-14.82,4.71-25.87,11.13-37.3,22.25-2.45,2.4-4.81,8.42-3,12.33s15.33,12,32.78,7.22S99.18,139,99.18,139s19.25-15.94,25.26-16.84,14.14-3.31,15.64-8.12S147.3,103.2,151.81,102.9Z" fill="#5a3928"/><circle cx="146.38" cy="80.14" r="9.87" fill="#263241"/><path d="M137.45,82.49s-5.63,10.34-9.39,14.1-17.86,19.73-17.86,19.73l5.64,5.64s23.49-29.13,26.31-31a13.47,13.47,0,0,1,6.58-1.88Z" fill="#263241"/><path d="M138.08,83.12c-.45-.28-.89-.53-1.31-.76a9.86,9.86,0,1,0,18.81-5.77C153.48,82.57,149.12,89.83,138.08,83.12Z" fill="#141d28"/><circle cx="113.02" cy="119.24" r="3.76" fill="#485566"/><path d="M143.69,97.19s-1.5-9.33-4.51-9.93-13.23-1.2-15.34-2.71-11.43,1.81-11.13,6.92-5.41,11.43-5.41,11.43v9.62s-7.82,1.81-9.93,5.42S52.13,135.59,41.44,139c-14.82,4.71-25.87,11.13-37.3,22.25-2.45,2.4-4.81,8.42-3,12.33s15.33,12,32.78,7.22S99.18,139,99.18,139s19.25-15.94,25.26-16.84,14.14-3.31,15.64-8.12,7.22-10.83,11.73-11.13C151.81,102.9,151.21,95.38,143.69,97.19Zm-9.46,7.16L115.58,123l-.69-.52A3.69,3.69,0,0,1,113,123a3.76,3.76,0,0,1-3.75-3.76,4.14,4.14,0,0,1,.1-.87l-.1-.08.23-.32a3.75,3.75,0,0,1,1.2-1.67l16-22.17,7.52,2.7Z" fill="#5a3928" stroke="#513123" stroke-miterlimit="10"/><circle cx="103.33" cy="186.3" r="4.18" fill="none" stroke="#dc7986" stroke-miterlimit="10"/><circle cx="146.33" cy="186.3" r="4.18" fill="none" stroke="#dc7986" stroke-miterlimit="10"/><circle cx="106.33" cy="226.3" r="4.18" fill="none" stroke="#dc7986" stroke-miterlimit="10"/><circle cx="145.33" cy="226.3" r="4.18" fill="none" stroke="#dc7986" stroke-miterlimit="10"/><circle cx="124.83" cy="186.8" r="3.68" fill="none" stroke="#dc7986" stroke-miterlimit="10"/><path d="M121.15,186.8c-9.33,3-15.81,16.41-14.82,35.32" fill="none" stroke="#dc7986" stroke-miterlimit="10"/><path d="M145.33,222.12s.65-28.27-16.83-35.32" fill="none" stroke="#dc7986" stroke-miterlimit="10"/><line x1="121.15" y1="186.3" x2="107.5" y2="186.3" fill="none" stroke="#dc7986" stroke-miterlimit="10"/><line x1="142.15" y1="186.3" x2="128.61" y2="186.3" fill="none" stroke="#dc7986" stroke-miterlimit="10"/><path d="M408.12,128a47.26,47.26,0,0,0,1.62-4.6c.82-2.7-2.16-5.13-2.7-3.78s-4.32,5.68-5.41,6.49-4.32.81-4.32.81-17.57,19.46-23,21.62-43.79,25.12-43.79,25.12l-11.08-8.9-17.3,22.44s14,17.84,17,18.92,7.84.27,11.89-2.7,41.36-33.25,46.77-35.41,16.22-5.14,19.19-4.87,7.3-3.78,9.73-5.95,11.9-10.27,10.81-13.51-3.78-13-5.13-14.06-7.3.54-7.3.54Z" fill="#ddbba2"/><path d="M391,373.72s3.9-16.05,17.58-12.36c14.28,3.85,20.47,40.43,38.25,60.23,3.32,3.69,7,17.24-7.75,15.24s-18.65-8-24.53-19Z" fill="#2e43a3"/><path d="M336.11,334s22.07-12.69,25.73-11.36,7.83,8.16,2.83,10.93-15.78,10.22-17.91,23.48S336.11,334,336.11,334Z" fill="#3143a8"/><path d="M322.69,305.91s25.49,30.21,26.43,76.47S351,418.26,351,418.26s15.11-15.11,26.44-14.16c0,0,11.32-34,17.93-34s28.32,14.16,23.6,29.27-6.6,10.38-21.71,30.21-50,58.53-58.53,58.53-26.44.94-29.27-9.44c0,0,3.78,15.1-6.61,16.05s-28.12,2.35-49.09-34.93c-25.49-45.32-49.09-110.46-42.48-135S322.69,305.91,322.69,305.91Z" fill="#0b062d"/><path d="M261.12,124.5c.19-6.61-1-5.16-.78-7.43s7.17,0,9.82,1.7,9.25,7.56,9.25,9.63,2.07,3.21,2.45.38,1.13-.19,3.4,1.13,4.91,1,3.4-1.32.94-2.08.94-2.08-2.83-5.28-3.4-7-.19-5.48-3.58-6.23S240.14,92,240.14,92l-46,12.54,2,3,7,11" fill="#5b3c28"/><path d="M206.62,112.31s-28.06,8.83-28.06,37.94-6.34,49.41-1.81,65.29,18.11,112.06,24.44,122.64,11.77-4.41,24.45.89,14.48,1.76,26.25-3.53,48.89-11.47,61.56-10.59,25.35.88,24.45-7.06-7.24-3.53-12.68-15-5.43-15-6.33-27.35-2.72-10.59-2.72-22.94-.91-11.47-.91-22.06c0-7.84-5.46-26.34-8.29-35.4-1-3.17-1.66-5.18-1.66-5.18s20.82-4.42,22.63-20.3l-34.4-48.52S247.36,102.61,206.62,112.31Z" fill="#2f42a8"/><path d="M289.6,126.51s-2.83-5.28-3.4-7-.19-5.48-3.58-6.23c-2.49-.55-24.1-11.73-35.5-17.68v27.43l14,1.45c.19-6.61-1-5.16-.78-7.43s7.17,0,9.82,1.7,9.25,7.56,9.25,9.63,2.07,3.21,2.45.38,1.13-.19,3.4,1.13,4.91,1,3.4-1.32S289.6,126.51,289.6,126.51Z" fill="#5b3c28"/><path d="M209.12,13.66s-35.66,7.67-32.33,45c0,0,6.67,23.67,10.33,25.34s5,12.33,5,14.66,11-4.33,11-4.33l45-1.33s10-12.34,8-25-4.33-34.67-14-42.67S216.79,12.33,209.12,13.66Z" fill="#906b54"/><path d="M248.46,74s-1.34,28,5.33,34.66,5.33,36-4.67,38-38-1.33-40-41.33S248.46,74,248.46,74Z" fill="#d8b4a3"/><path d="M218.79,33.66c-7.59-2.56-13,4.67-16.33,13.34s-13.34,19.66-6.34,43c0,0,6,10.33,10.34,16.33s27,18.33,31,9.67,17.33-28.67,14-34S242.46,41.66,218.79,33.66Z" fill="#d8b4a3"/><path d="M246.6,115.24l-23.71-3.17s-7.38-1.58-6.85,20-13.7,53.74-20.55,61.12-21.08,1.58-21.61,13.7,8.91,23.61,8.91,29.41,5.81,15.33,12.67,15.33,25.32-37.89,28.48-57.39,4.74-38.46,10-39,12.65-20,12.65-20,1,13.69,3.16,10.54c2.78-4.16,2-10.55,2-10.55a62.26,62.26,0,0,1,7.44-.52c3.69,0,4.15-2.81-1.05-3.69s-7.31-1.44-7.31-1.44l-1.12-9.1s3.16-1,6.85-2.1,3.69-4.22-1.06-4.22S249,114.39,246.6,115.24Z" fill="#d8bcac"/><path d="M243.4,134.77,247,162l-8.77.93-5.49-27a2.72,2.72,0,0,1,2.58-3.26l5.51-.17A2.56,2.56,0,0,1,243.4,134.77Z" fill="#2d323e"/><circle cx="242.72" cy="163.32" r="4.69" fill="#4f4749"/><path d="M226.33,112.35c2.93.08,9.07.3,13.66.7a10.3,10.3,0,1,0-13.66-.7Z" fill="#2d323e"/><g opacity="0.5"><polyline points="235.99 209.33 223.23 241.71 240.24 257.09" fill="none" stroke="#9faaf1" stroke-miterlimit="10" stroke-width="2"/><line x1="254.63" y1="190.36" x2="246.78" y2="274.42" fill="none" stroke="#9faaf1" stroke-miterlimit="10" stroke-width="2"/><polyline points="262.81 207.04 279.17 226.99 265.43 259.7" fill="none" stroke="#9faaf1" stroke-miterlimit="10" stroke-width="2"/></g></svg>
