<svg id="Layer_1" data-name="Layer 1" xmlns="http://www.w3.org/2000/svg" viewBox="0 0 69 69"><title>star-lg</title><path d="M65.37,32.68h-22a8.89,8.89,0,0,0-1.22-3l10.1-10.1c.5-.5,1.41-2.23.91-2.73s-2.22.41-2.72.91l-10,10a9.16,9.16,0,0,0-4.19-2.14v-22c0-1-.82-3.63-1.82-3.63s-1.82,2.63-1.82,3.63v22a9.18,9.18,0,0,0-3.61,1.66L19.6,17.78c-.5-.5-2.23-1.41-2.73-.91s.41,2.23.91,2.73l9.48,9.48a9.07,9.07,0,0,0-1.66,3.6h-22c-1,0-3.63.82-3.63,1.82s2.63,1.82,3.63,1.82h22a9,9,0,0,0,2.24,4.31L17.78,50.7c-.5.49-1.41,2.22-.91,2.72s2.23-.41,2.73-.91L29.85,42.26a9.09,9.09,0,0,0,2.83,1.14v22c0,1,.82,3.63,1.82,3.63s1.82-2.63,1.82-3.63v-22a9.07,9.07,0,0,0,3.48-1.56L50.47,52.51c.5.5,2.22,1.41,2.72.91s-.41-2.23-.91-2.72L41.64,40.05a9.12,9.12,0,0,0,1.76-3.73h22c1,0,3.63-.82,3.63-1.82S66.37,32.68,65.37,32.68Z" fill="#dffffe"/></svg>
