<svg id="Layer_1" data-name="Layer 1" xmlns="http://www.w3.org/2000/svg" xmlns:xlink="http://www.w3.org/1999/xlink" viewBox="0 0 190.18 301.05"><defs><clipPath id="clip-path"><path d="M77.07,46.63S93.34,60.29,86,74c0,0-6.67,4-15.33-1.34L62,67.31S61.75,53.32,77.07,46.63Z" fill="none"/></clipPath></defs><title>astro-2</title><polygon points="164.87 172.54 188.27 201.9 182.03 209.12 151.75 172.54 164.87 172.54" fill="#5e7482"/><path d="M190.18,174.81s-3.79-16.94-5.44-18.09-2.28,5.94-2.14,8c.08,1.22.78,43.57.78,43.57l6.8-7.47Z" fill="#5e7482"/><path d="M183.67,156.19h-.57a1.07,1.07,0,0,0-1.07,1.07v49.9a1.07,1.07,0,0,0,1.64.91l.57-.36a1.08,1.08,0,0,0,.5-.91V157.26A1.07,1.07,0,0,0,183.67,156.19Z" fill="#b8c0c9"/><path d="M151.75,172.55h0a.85.85,0,0,1,1.24.1l29,36.47s-.86,1.86-2.58-.15c-1.57-1.84-24.15-30.58-27.81-35.25A.86.86,0,0,1,151.75,172.55Z" fill="#b8c0c9"/><polygon points="78.5 155.16 72.53 153.87 81.57 111.7 87.54 112.99 78.5 155.16" fill="#000009"/><path d="M89.81,128.24l3-13.75-6-1.3L76.76,160l6,1.29,3.57-16.64c.46.75,1.35,1.22,3-.5L92.26,130S92.42,126.83,89.81,128.24Z" fill="#dee3ea"/><polygon points="82.23 158.3 76.25 157.01 85.42 114.24 91.4 115.53 82.23 158.3" fill="#5f7583"/><path d="M26.1,23.42S17.49,23.13,14,26.73c0,0-.29-2.81-5.75-3.26S3.53,23,1.56,23.08s-2.31-1.73.35-2.37,8.8-2.07,8.8-2.07S8.64,16.46,8.4,15.43s-2.22.89-3.05,1.23-2.12.25-1.33-1,4.08-3.75,5-3.55c0,0-4.92-7.9-5.51-9.77s-.15-3,1-2,5.56,7.46,6,8,1.23-.3,2,.64,1.28.15,1.72-.1.54-.59,1.23-.1,1.32,2,2.11,1.88.84-1.19,1.67-.64.94,1.68,1.77,1.87,1.53-.69,1.87.64S26.1,23.42,26.1,23.42Z" fill="#9aacb8"/><path d="M92.5,79.6c-.5,0-1.12,2.26-3.12,3.89s1.12,7,3.37,9.15-32-4.76-32-4.76l.38-8.15s8.87-.51,10.74-.88S92.5,79.6,92.5,79.6Z" fill="#dee3ea"/><path d="M177.5,219.39s9.29,16.67,10.8,20.4-.11,10.5-5.69,6.07-5.92-7-12-7.23-4.88-2.45-4.53-7.81c.38-5.84-5-4.55-7.2-6.88-1.7-1.8-.7-1.87,1-2.92s3.84-2.21,4.88-4.78S172.39,208.2,177.5,219.39Z" fill="#9aacb8"/><path d="M114,282.67s-14.5,14.09-17.9,16.68-10.79,2.91-7.8-3.93,5.51-7.93,4.07-14,1.14-5.58,6.74-6.78c6.08-1.31,3.26-6.3,5-9.17,1.36-2.21,1.71-1.24,3.28.2s3.34,3.18,6.26,3.48S124,274.34,114,282.67Z" fill="#9aacb8"/><path d="M27.71,25.18S18.22,23.84,14.39,30c0,0,11.82,21.73,17.32,30.26s9.33,19.9,7,29.76-3.33,11.2-3.5,22.57,2.33,37.45-5.83,49-5.5,35.44,1.83,46.81,8.16,18.06,10,21.74,4.5,9.7,14.49,13.71S91.5,270,93.17,271.62c0,0,9-7.86,9-10.2s-5.66-7.52-11.49-17.05-14-14.55-18.82-18.56l-1.5-11S98.17,229.32,103,231.33s4.33,3.84,6.66,4.35.66-1.17,10.32-.84c8.25.28,29,1.54,36,2a2.83,2.83,0,0,0,2.95-2.19c1-4.26,1.89-13.25-5.74-17.88a2.54,2.54,0,0,0-1.24-.35c-4.43-.14-29.91-1-34.32-3.33-4.83-2.5-25.31-25.58-28.15-30.42,0,0-3.66-17.56-8.49-27.42s-7.33-34.95,8.16-37.62c0,0,9.66,3.51,19.16,16.72s31,27.25,34.64,27.42,8.49-7.19,8-10.7S139.64,140.54,135.81,137,113.49,118.47,111,114.79s-8.49-15-13.66-20.23S71.68,87.71,63.86,77.34,30.55,27.35,27.71,25.18Z" fill="#9aacb8"/><path d="M105.46,58.72c2.33,6.29.78,22-9.6,26l-14-39.9s3.15-1.71,14,4C104.2,53.23,105.46,58.72,105.46,58.72Z" fill="#dee3ea"/><path d="M82.88,45c5.5,1.58,24.9,6.28,21.1,27.26-.75,4.12-1.46,5.55-3,7.7-1.36,1.94-6.34,7.38-11.27,6.64C84,85.78,69.5,81.1,67.91,79.25S61.66,71,61.9,66.7c.16-2.84,7.51-3.87,12.58-4.24a3.37,3.37,0,0,0,2.88-4.61c-1.44-3.66-3.08-8.46-2.27-9.56s3.5-2.53,5.11-3.24A3.86,3.86,0,0,1,82.88,45Z" fill="#9caeba"/><g clip-path="url(#clip-path)"><path d="M77.07,46.63S93.34,60.29,86,74c0,0-6.67,4-15.33-1.34L62,67.31S61.75,53.32,77.07,46.63Z" fill="#d74f58"/><path d="M89.11,53.09s-6.54-6.6-13.8-1.38-9.73,12.55-9.8,15.58a8,8,0,0,0,7.15,8.07c5.33.76,13.87-3.09,16.16-5.75S96.24,59.75,89.11,53.09Z" fill="#b8353f"/></g><path d="M172.43,175.49c2.73,1.74,2.18-1.52,0-2.85L167.7,168c4,3.79,5.68,2.06,4.89,1.08-1-1.18-11.9-9.19-17.16-12.95a2.36,2.36,0,0,0-3.54.95,15.28,15.28,0,0,1-2.64,4.18c-1.22,1.39.14,3.4,1.87,4.41s3.74,8.82,3,11.42-1.15,5.49.86,4.19,2.6-8.24,2.31-9.83-.72-3.45-.72-3.45,8.06,10.54,9.36,12.13,3.89,2,2.59-.15-6.48-10.12-6.48-10.12,7.78,8.82,9.65,9.54,2.73-.86,1-2.45-8.5-9.69-8.5-9.69S169.69,173.76,172.43,175.49Z" fill="#9aacb8"/></svg>