<svg id="Layer_1" data-name="Layer 1" xmlns="http://www.w3.org/2000/svg" viewBox="0 0 423.24 353.7"><title>singer-dancers</title><path d="M330.58,94.09S347,94.73,348,85.38c0,0,14.19,6.45,19.35,8.39s6.12,8.7,7.73,13.54,9.67,23.53,9.67,23.53l3.55-23.53s-7.74-3.55-6.77-7.42,8.71-7.09,12.25-1.61-.32,44.17-1,50.94-29.65-27.41-34.49-30.63S342.11,140.3,339.93,145c-4.69,10.17,7.31,16.17,8.71,34.17.77,10-13.22,22.24-13.22,22.24l11.28,27.73a33.42,33.42,0,0,1,25.47-8.38c13.07,1.41,16.12-2.58,20.63-5.81s12.26-6.44,14.51-.64,4.52,16.12,9,16.76,9.67,6.13,5.16,7.09-16.84-6.94-20.26-9c-5-3-14,0-19,3-3.54,2.12-32.64,16.31-36.83,21.15S315.75,227.88,313.18,223c0,0-13.87,14.19-20,25.47s-13.86,21-17.73,24.5-11.53,12.55-10.64,15.48c1.42,4.71,4,8.2,1.42,12.71-2.48,4.33-13.26,4.28-18.4,20a7.39,7.39,0,0,1-2.51,3.58c-3.74,2.89-11.38,7.81-7.91-3.07,4.51-14.18,12.26-21.59,13.82-25.49,2-5-.51-12.23,4-19,4.21-6.31,26-76.25,43.29-96.65a27.16,27.16,0,0,0,6.29-13.68,53.12,53.12,0,0,0-.67-18.62c-3.55-16.44-2.58-26.11-2.58-26.11L270.62,79.9l2.26-8.7h7.73s1.62-13.22,2.91-9.67,6.12,25.79,9.67,29.66,13.54,17.41,13.54,17.41S320,92.8,330.58,94.09Z" fill="#020217"/><path d="M319,49s-7.09,9-3.23,22.57,5.81,8.06,10.64,9.35S329,96.35,329,96.35s17.41,1,18.38-7.74-4.52-41.91-4.52-41.91S320.59,42.83,319,49Z" fill="#99afb4"/><path d="M356.38,91.83s-14.19-11.6-1.29-22.24,6.77-28.37-8.39-30.31-30.3,5.48-31.27,11.61-1.61,9.67-1.61,9.67,1.93-5.8,6.13-6.77,6.44,13.54,10.63,17.41S345.41,91.51,356.38,91.83Z" fill="#020217"/><path d="M227.31,92.11c1.93-2.54,2.93-3.54,5.74-3.58,2.6,0,5.19-4,3.74-5.75-1.93-2.36-3.16-4.31-2.73-6.17s-3.28-1.87-4.88-3.31c-1.94-1.73-4.94-10.73-8.94-11.73-3.14-.79-15.91,18.63-16.05,22.93S222,99.58,222,99.58,225.69,94.24,227.31,92.11Z" fill="#8ba1a5"/><path d="M210.46,5.64c-.57,0-2.22-.51-2.22-1.07,0-4-1.64-5.57-1.64-3.92,0,6.09,0,14.09,3.05,17.52s1.87,18.3,2.66,20.19c.93,2.21-8.38,32.38-8.38,32.38L213.08,73a31.37,31.37,0,0,0,11-21c1.12-10.51-.88-11.51-1.14-14.1-.38-3.81,1.14-9.52-.38-13.71a59.83,59.83,0,0,0-5.33-9.91l.67-7.4a.94.94,0,0,0-.89-1Z" fill="#99afb4"/><path d="M231.51,122.27,262,119.6l14.81-27.39a2.87,2.87,0,0,0,.33-1.7c-.36-3.11-1.6-13.35-2.57-16.24-1.14-3.43,2,.49,4.69,4.3,2.29,3.27,1.28-5,1.08-6.79,0-.32,0,3.37,0,3l.19-1.36a3.72,3.72,0,0,1,4-3.18l2.35.2a2.36,2.36,0,0,0,2.51-1.87c.18-.77.21-.14,0-1.88-.38-3.43.77-6.79,1.91-.38.92,5.21-.08,8.21-2.67,15.91s-11.81,38.09-14.48,42.29S225,137.89,225,137.89Z" fill="#99afb4"/><path d="M210.24,163.89s-4.06,16.68-24,16.3-5.28-47-5.28-47l7.85-6.25Z" fill="#99afb4"/><path d="M184.91,133.63s-2.76-6.69,3.14-6.69,4.34-22.83,4.73-30.31,1.18-20.08,5.12-24S200.65,61.2,203.41,62s.79,5.91,8.27,7.09,9.84,2.36,7.87,7.48-2.76,4.72-1.18,7.48,18.9,19.68,15.75,38.19-16.54,50-23.62,53.15-12.6,8.66-9.85-1.58S187.66,138.75,184.91,133.63Z" fill="#050219"/><path d="M195.24,183.2c-.73-12.19-4.32-44.57-13.78-53.41,0,0-13-.76-15.24,1.91,0,0-36.19-12.57-51-14.48S98,110.36,93.83,102,59.93,87.13,56.12,84.46a75.5,75.5,0,0,1-8.15-7L35,89.27s76.34,61.48,100.72,69.1c0,0,8.76,16.38,13.71,17.52,0,0-7.61,33.71,32,44.19,25.9,6.86,22.47,25.15,20.19,31.24s-7.24,19.81-5.72,27.43-5.71,14.48-12.19,12.95-10.67-.38-8.76,8.77,13.71,36.95,14.1,41.9,9.14,16,9.14,9.15-1.91-37,6.86-52.2,28.19-51,29.33-58.66-4.19-14.48-14.1-24.39c-7.26-7.26-17.59-17.39-22.59-22.28C195.85,192.17,195.4,185.81,195.24,183.2Z" fill="#050219"/><path d="M36.73,69.33a12.82,12.82,0,0,1-8.51-3.71c-2.26-2.27-6.31-4.84-12.87-4.4C3.93,62-1.79,67.32.5,71.12S22.05,84.29,26.24,86.2s23,7,23,7-4-11.29-4-17C45.24,71.52,44.18,69.67,36.73,69.33Z" fill="#030214"/></svg>
