<?xml version="1.0" encoding="UTF-8"?>
<svg width="8px" height="8px" viewBox="0 0 8 8" version="1.1" xmlns="http://www.w3.org/2000/svg" xmlns:xlink="http://www.w3.org/1999/xlink">
    <title>Path</title>
    <g id="Icons" stroke="none" stroke-width="1" fill="none" fill-rule="evenodd" fill-opacity="0.54">
        <path d="M1.61289944,0.209704612 L1.70710678,0.292893219 L4,2.585 L6.29289322,0.292893219 C6.68341751,-0.0976310729 7.31658249,-0.0976310729 7.70710678,0.292893219 C8.06759074,0.65337718 8.09532028,1.22060824 7.79029539,1.61289944 L7.70710678,1.70710678 L5.415,4 L7.70710678,6.29289322 C8.09763107,6.68341751 8.09763107,7.31658249 7.70710678,7.70710678 C7.34662282,8.06759074 6.77939176,8.09532028 6.38710056,7.79029539 L6.29289322,7.70710678 L4,5.415 L1.70710678,7.70710678 C1.31658249,8.09763107 0.683417511,8.09763107 0.292893219,7.70710678 C-0.0675907428,7.34662282 -0.0953202783,6.77939176 0.209704612,6.38710056 L0.292893219,6.29289322 L2.585,4 L0.292893219,1.70710678 C-0.0976310729,1.31658249 -0.0976310729,0.683417511 0.292893219,0.292893219 C0.62333685,-0.0375504127 1.12750547,-0.0883878944 1.51140295,0.140380774 L1.61289944,0.209704612 Z" id="Path" fill="#000000" fill-rule="nonzero"></path>
    </g>
</svg>