<svg width="18px" height="18px" viewBox="0 0 18 18" version="1.1" xmlns="http://www.w3.org/2000/svg" xmlns:xlink="http://www.w3.org/1999/xlink">
    <title>Group 2</title>
    <g id="Icons" stroke="none" stroke-width="1" fill="none" fill-rule="evenodd">
        <g id="Group-2" transform="translate(1.000000, 1.000000)">
            <circle id="Oval" stroke-opacity="0.54" stroke="#000000" cx="8" cy="8" r="8"></circle>
            <path d="M7.53515625,9.828125 L7.53515625,9.51171875 C7.53515625,9.05468521 7.60546805,8.67871241 7.74609375,8.38378906 C7.88671945,8.08886571 8.14843559,7.77734539 8.53125,7.44921875 C9.06250266,7 9.39746024,6.66211051 9.53613281,6.43554688 C9.67480538,6.20898324 9.74414062,5.93554848 9.74414062,5.61523438 C9.74414062,5.21679488 9.61621222,4.90918077 9.36035156,4.69238281 C9.10449091,4.47558485 8.73633053,4.3671875 8.25585938,4.3671875 C7.94726408,4.3671875 7.64648584,4.40331995 7.35351562,4.47558594 C7.06054541,4.54785192 6.72461127,4.67968654 6.34570312,4.87109375 L6,4.08007812 C6.73828494,3.69335744 7.5097616,3.5 8.31445312,3.5 C9.06055061,3.5 9.64062293,3.68359191 10.0546875,4.05078125 C10.4687521,4.41797059 10.6757812,4.93554354 10.6757812,5.60351562 C10.6757812,5.8886733 10.6376957,6.13964735 10.5615234,6.35644531 C10.4853512,6.57324327 10.3730476,6.77831935 10.2246094,6.97167969 C10.0761711,7.16504003 9.75586184,7.47656035 9.26367188,7.90625 C8.86913865,8.24218918 8.60839907,8.52148326 8.48144531,8.74414062 C8.35449155,8.96679799 8.29101562,9.26367002 8.29101562,9.63476562 L8.29101562,9.828125 L7.53515625,9.828125 Z M7.24804688,11.5683594 C7.24804688,11.0371067 7.48241953,10.7714844 7.95117188,10.7714844 C8.17773551,10.7714844 8.35253845,10.8398431 8.47558594,10.9765625 C8.59863343,11.1132819 8.66015625,11.3105456 8.66015625,11.5683594 C8.66015625,11.8183606 8.59765688,12.0126946 8.47265625,12.1513672 C8.34765562,12.2900398 8.17382924,12.359375 7.95117188,12.359375 C7.74804688,12.359375 7.58007879,12.2978522 7.44726562,12.1748047 C7.31445246,12.0517572 7.24804688,11.8496108 7.24804688,11.5683594 Z" id="?" fill-opacity="0.54" fill="#000000" fill-rule="nonzero"></path>
        </g>
    </g>
</svg>
