<svg xmlns="http://www.w3.org/2000/svg" viewBox="0 0 16 16" id="icon-cloud-upload-negative">
	<path d="M12.9,13.6L12.9,13.6c-0.4,0-1.8,0-3.4,0H9.1l0-3.7l1.1,0L8,7.8L6.3,9.9h1.3l0,3.7H3.5 c-2.1,0-3.5-1.2-3.5-3.1C0,9.2,0.8,8,2,7.4c0.3-1.3,1.2-2.1,2.4-2.1c0.4,0,1,0.1,1.5,0.4c0.8-1.4,2-2.1,3.3-2.1 c2.1,0,3.8,1.7,4.1,3.9c1.6,0.1,2.8,1.5,2.8,3.3C16,12.6,14.8,13.6,12.9,13.6z M10,12.8c1.5,0,2.5,0,2.8,0l0.1,0 c1.4,0,2.1-0.7,2.1-2.1c0-1.4-0.9-2.4-2.1-2.4l-0.6,0l0-0.5c0-1.7-1.2-3.4-3.2-3.4c-1.4,0-2.3,1.1-2.7,2.1L6.2,7L5.7,6.7 c-0.3-0.2-1-0.4-1.4-0.4c-1.1,0-1.4,1.2-1.5,1.6v0.3L2.6,8.2c-1,0.4-1.6,1.3-1.6,2.4c0,1.5,1.3,2.2,2.6,2.2h3.1l0-2H4.2L8,6.5 l4.1,4.3l-2.1,0L10,12.8z"></path>
</svg>
