<?xml version="1.0" encoding="UTF-8"?>
<svg width="32px" height="33px" viewBox="0 0 32 33" version="1.1" xmlns="http://www.w3.org/2000/svg" xmlns:xlink="http://www.w3.org/1999/xlink">
  <!-- Generator: Sketch 64 (93537) - https://sketch.com -->
  <title>Calendar Icon</title>
  <desc>Created with Sketch.</desc>
  <g id="Calendar-Icon" stroke="none" stroke-width="1" fill="none" fill-rule="evenodd">
    <g id="Icons/Controls&amp;Misc/calendar" transform="translate(3.000000, 3.000000)" fill="#9D9D9D" fill-rule="nonzero">
      <path d="M10.125,1.6875 L10.125,3.375 L15.1875,3.375 L15.1875,1.6875 L18.5625,1.6875 L18.5625,3.375 L20.25,3.375 C21.1819805,3.375 21.9375,4.13051948 21.9375,5.0625 L21.9375,23.625 C21.9375,24.5569805 21.1819805,25.3125 20.25,25.3125 L5.0625,25.3125 C4.13051948,25.3125 3.375,24.5569805 3.375,23.625 L3.375,5.0625 C3.375,4.13051948 4.13051948,3.375 5.0625,3.375 L6.75,3.375 L6.75,1.6875 L10.125,1.6875 Z M8.437,20.2495 L5.062,20.2495 L5.0625,23.625 L8.437,23.6245 L8.437,20.2495 Z M20.25,20.2495 L16.875,20.2495 L16.875,23.6245 L20.25,23.625 L20.25,20.2495 Z M15.187,20.2495 L10.125,20.2495 L10.125,23.6245 L15.187,23.6245 L15.187,20.2495 Z M8.437,15.1875 L5.062,15.1875 L5.062,18.5625 L8.437,18.5625 L8.437,15.1875 Z M20.25,15.1875 L16.875,15.1875 L16.875,18.5625 L20.25,18.5625 L20.25,15.1875 Z M15.187,15.1875 L10.125,15.1875 L10.125,18.5625 L15.187,18.5625 L15.187,15.1875 Z M8.437,10.1245 L5.062,10.1245 L5.062,13.4995 L8.437,13.4995 L8.437,10.1245 Z M20.25,10.1245 L16.875,10.1245 L16.875,13.4995 L20.25,13.4995 L20.25,10.1245 Z M15.187,10.1245 L10.125,10.1245 L10.125,13.4995 L15.187,13.4995 L15.187,10.1245 Z M20.25,5.0625 L5.0625,5.0625 L5.062,8.4375 L20.25,8.4375 L20.25,5.0625 Z" id="Combined-Shape" />
    </g>
  </g>
</svg>
