<svg id="Layer_1" data-name="Layer 1" xmlns="http://www.w3.org/2000/svg" xmlns:xlink="http://www.w3.org/1999/xlink" viewBox="0 0 290.23 127.85"><defs><clipPath id="clip-path"><path d="M51.56,10s24,3.44,25.23,22.25c0,0-4,8.44-15.6,8.58L49.59,41S40.83,26.85,51.56,10Z" fill="none"/></clipPath></defs><title>astro-1</title><rect x="116.16" y="41.06" width="40.59" height="6.75" rx="3.38" ry="3.38" transform="translate(25.08 -46.07) rotate(21.06)" fill="#e0e4ec"/><rect x="96.58" y="44.38" width="71.39" height="16.77" rx="8.39" ry="8.39" transform="translate(27.8 -44.01) rotate(21.06)" fill="#5f7583"/><path d="M165.05,70.11s15.39-30.2,18.63-37.93,4.5-5.1,8.84-3.18,6.14,4.09,9.44,6.41,2.47,5.76-1.57,11.4S186,72.07,185.4,78.05,165.05,70.11,165.05,70.11Z" fill="#9aacb8"/><path d="M179.38,45.84c2.88-1.55,2,6.42,1.78,7.95l1.63-12.15c3.4-12.84,10.14-8.12,18.13-6.46-2.71-2-4.57-4-8.45-5.69-4.34-1.91-5.6-4.54-8.84,3.19S165,70.6,165,70.6s1.47,1,3.61,2.41C171,62.49,176.91,47.17,179.38,45.84Z" fill="#dee3ea"/><path d="M128.73,102.11s30.5,19.5,80,9,50.5-13.5,50.5-13.5,4.5-3,2.5-11-6-16-15.5-14.5-44,10-54,8.5-21-9.5-29.5-13-25.5-2.5-34.5-8S128.73,102.11,128.73,102.11Z" fill="#9aacb8"/><path d="M143.73,65.61c7-.5,20,5,20,5,36,29,84,7.5,84,7.5l14,17.07c.89-1.75,1.55-4.51.53-8.57-2-8-6-16-15.5-14.5s-44,10-54,8.5-21-9.5-29.5-13-25.5-2.5-34.5-8c-5.18-3.16-4.23,11.39-2.49,24.31C130.22,74.53,138,66,143.73,65.61Z" fill="#dee3ea"/><path d="M2.75,5c-2.67-.5-2.48.7-1,1.25A10.91,10.91,0,0,1,6.51,9.44,8.24,8.24,0,0,0,6,12.17c-.11,1.45.78,2.82,1.25,1.4.59-1.77-.51-2.8,1.84-1.63,1.69.84,3.08,3.33,1,4s-.55.31-3.81.8-2.45,2.93-.33,2.77,10-1.63,17.14,3.1S51,49.53,55.36,51s7.67,2,9.79,6.52a10.17,10.17,0,0,0,6.37,5.55l9.63-13.22s-32-18.93-37.71-22.69S8,6,2.75,5Z" fill="#9caeba"/><path d="M86.29,4c6.06,4.93,14.12,22.08,6.53,32.91L55.12,5.1s2-3.79,15.91-5C81.74-.8,86.29,4,86.29,4Z" fill="#dee3ea"/><path d="M56,3.45C62.5,1.4,84.79-6.74,93.92,17.69c1.8,4.8,2,6.77,1.8,10-.15,2.93-1.78,12-7.17,14.5-6.3,3-23.67,7.83-26.41,7s-11.31-4.38-13.74-9c-1.59-3.06,5.12-9.08,10-12.88a4.32,4.32,0,0,0,0-6.73c-3.7-2.85-8.3-6.75-8.17-8.45.14-1.9,1.94-5,3.11-6.8A4.73,4.73,0,0,1,56,3.45Z" fill="#9caeba"/><g clip-path="url(#clip-path)"><path d="M51.56,10s24,3.44,25.23,22.25c0,0-4,8.44-15.6,8.58L49.59,41S40.83,26.85,51.56,10Z" fill="#d74f58"/><path d="M67.1,8.85S56.77,6.33,52.94,16.4s-1.77,19.18,0,22.33a8.78,8.78,0,0,0,11.8,3.62c5.6-2.68,11.5-12.17,12.09-16.39S78,11.05,67.1,8.85Z" fill="#b8353f"/></g><path d="M152.3,65.18s-27.44,2.68-37.5,31.4l-1.62-.76s9.41-26.72,34.35-31.28Z" fill="#d84752"/><path d="M86.64,83.36S59.05,68,63.79,53.65,88.6,37.81,100.51,40.26s17.63,4.41,20.08,5.55,5.23,3.27,6,11.27,1.8,43.42,2.12,44.72c0,0-6.69-1.47-7.5,1L119.78,99Z" fill="#9aacb8"/><path d="M118.1,86.1a54.25,54.25,0,0,0-4.92,9.72l1.62.76a51.29,51.29,0,0,1,3.62-8.07Z" fill="#d84752"/><path d="M79.85,72.54c-4.41-10.61,6.69-13.38,6.69-13.38s-12.57,0-14.86-.33-1.79-5.55,4.74-7.18,39.34-.33,42,2.45c2.16,2.29,5.78,35.67,7,47.11a22.35,22.35,0,0,1,3.42.43c-.32-1.31-1.3-36.73-2.12-44.73s-3.59-10.12-6-11.26-8.16-3.1-20.08-5.55-32-1-36.72,13.39,22.85,29.7,22.85,29.7l1.44.69C86.31,82.82,82.92,80,79.85,72.54Z" fill="#dee3ea"/><path d="M121.19,102.47l.06.15,0-.09Z" fill="#dee3ea"/><path d="M109.23,118.58s2.28,7.67,3.75,9.14,20.73-9.63,20.73-9.63-1.63-8.66-3.26-8.33S109.23,118.58,109.23,118.58Z" fill="#0c1522"/><path d="M128.65,101.11s-6.36-1.63-8.32,1.79l.81,5.06L113,115.47s1.8,1.31,2.94,1c3.09-.88,6-4.4,6-4.4s.49,9.79,3.1,11.42,8.33-.16,9.14-1.79,3.59-7.19,3.59-8.33-1.3-1.79-2.44,1a9.8,9.8,0,0,1-2.13,3.59,57.38,57.38,0,0,0,1.15-5.71c.16-1.8-.66-2.45-1.31-1a16.24,16.24,0,0,1-1.47,2.61Z" fill="#9aacb8"/><path d="M126.86,103.23s1.79,14.2,7.51,17.47l0,.1c1.07-2.14,3.24-6.6,3.24-7.61s-1.3-1.8-2.45,1a9.86,9.86,0,0,1-2.12,3.59,55.34,55.34,0,0,0,1.14-5.71c.17-1.8-.65-2.45-1.3-1a17.18,17.18,0,0,1-1.47,2.61L128.49,101s-6.37-1.64-8.33,1.79l.24,1.55C121.41,103.53,123.33,102.78,126.86,103.23Z" fill="#dee3ea"/><path d="M206.44,8.17s20.36,11.92,24.31,15,6.46,11.24-2.26,10-10.7-3.73-17.28-.18-6.73.45-9.72-5.48c-3.26-6.45-8.18-1.71-12-2.8-2.93-.85-1.91-1.55-.72-3.76s2.7-4.77,2.2-8.15S194-.54,206.44,8.17Z" fill="#9aacb8"/><path d="M284.11,75.24s5.51,22.94,6.07,27.88-3.63,12.46-8.79,5.33-4.73-10.3-11.84-12.59-5-4.53-2.8-10.8c2.39-6.82-4.43-7.08-6.29-10.59-1.42-2.7-.21-2.45,2.22-3.12s5.3-1.36,7.4-4.07S281.74,60.22,284.11,75.24Z" fill="#9aacb8"/><polygon points="174.37 114.1 171.84 113.96 158.76 66 161.35 66.36 174.37 114.1" fill="#010411"/><path d="M106.38,59.17S80.64,54.12,70.68,71l1.72,1.83S75.42,58.19,106.38,59.17Z" fill="#010411"/></svg>