<svg id="Layer_1" data-name="Layer 1" xmlns="http://www.w3.org/2000/svg" viewBox="0 0 225 159"><title>maven-constellation</title><circle cx="47.5" cy="4.5" r="4.5" fill="#e4e8ef"/><circle cx="177.5" cy="4.5" r="4.5" fill="#e4e8ef"/><circle cx="220.5" cy="154.5" r="4.5" fill="#e4e8ef"/><circle cx="4.5" cy="153.5" r="4.5" fill="#e4e8ef"/><circle cx="87.5" cy="83.68" r="3.66" fill="#e4e8ef"/><circle cx="140.5" cy="83.68" r="3.66" fill="#e4e8ef"/><circle cx="113.5" cy="134.68" r="3.66" fill="#e4e8ef"/><circle cx="37.87" cy="31.4" r="2.41" fill="#e4e8ef"/><circle cx="32.87" cy="59.4" r="2.41" fill="#e4e8ef"/><circle cx="21.87" cy="89.4" r="2.41" fill="#e4e8ef"/><circle cx="55.87" cy="16.4" r="2.41" fill="#e4e8ef"/><circle cx="102.87" cy="45.4" r="2.41" fill="#e4e8ef"/><circle cx="109.87" cy="55.4" r="2.41" fill="#e4e8ef"/><circle cx="124.87" cy="48.4" r="2.41" fill="#e4e8ef"/><circle cx="125.87" cy="70.4" r="2.41" fill="#e4e8ef"/><circle cx="98.87" cy="68.4" r="2.41" fill="#e4e8ef"/><circle cx="131.87" cy="95.4" r="2.41" fill="#e4e8ef"/><ellipse cx="94.85" cy="101.39" rx="2.41" ry="2.38" transform="translate(-33.98 153.15) rotate(-68.8)" fill="#e4e8ef"/><circle cx="150.87" cy="93.4" r="2.41" fill="#e4e8ef"/><circle cx="146.87" cy="69.4" r="2.41" fill="#e4e8ef"/><circle cx="153.87" cy="52.4" r="2.41" fill="#e4e8ef"/><circle cx="162.87" cy="37.4" r="2.41" fill="#e4e8ef"/><circle cx="169.87" cy="23.4" r="2.41" fill="#e4e8ef"/><circle cx="149.87" cy="23.4" r="2.41" fill="#e4e8ef"/><circle cx="136.87" cy="37.4" r="2.41" fill="#e4e8ef"/><circle cx="162.87" cy="14.4" r="2.41" fill="#e4e8ef"/><circle cx="184.87" cy="23.4" r="2.41" fill="#e4e8ef"/><circle cx="188.87" cy="40.4" r="2.41" fill="#e4e8ef"/><circle cx="195.87" cy="66.4" r="2.41" fill="#e4e8ef"/><circle cx="202.87" cy="89.4" r="2.41" fill="#e4e8ef"/><circle cx="212.87" cy="119.4" r="2.41" fill="#e4e8ef"/><circle cx="210.87" cy="131.4" r="2.41" fill="#e4e8ef"/><circle cx="200.87" cy="139.4" r="2.41" fill="#e4e8ef"/><circle cx="177.87" cy="151.4" r="2.41" fill="#e4e8ef"/><circle cx="200.87" cy="153.4" r="2.41" fill="#e4e8ef"/><circle cx="131.87" cy="140.4" r="2.41" fill="#e4e8ef"/><circle cx="123.87" cy="115.4" r="2.41" fill="#e4e8ef"/><circle cx="103.87" cy="117.4" r="2.41" fill="#e4e8ef"/><circle cx="88.87" cy="140.4" r="2.41" fill="#e4e8ef"/><circle cx="27.87" cy="155.4" r="2.41" fill="#e4e8ef"/><circle cx="61.87" cy="147.4" r="2.41" fill="#e4e8ef"/><circle cx="61.87" cy="104.4" r="2.41" fill="#e4e8ef"/><circle cx="37.87" cy="126.4" r="2.41" fill="#e4e8ef"/><circle cx="12.87" cy="118.4" r="2.41" fill="#e4e8ef"/><circle cx="20.87" cy="141.4" r="2.41" fill="#e4e8ef"/><circle cx="151.87" cy="145.4" r="2.41" fill="#e4e8ef"/><circle cx="178.87" cy="118.4" r="2.41" fill="#e4e8ef"/><circle cx="192.87" cy="130.4" r="2.41" fill="#e4e8ef"/><circle cx="163.87" cy="106.4" r="2.41" fill="#e4e8ef"/><circle cx="76.87" cy="27.4" r="2.41" fill="#e4e8ef"/><circle cx="76.87" cy="63.4" r="2.41" fill="#e4e8ef"/><circle cx="65.87" cy="38.4" r="2.41" fill="#e4e8ef"/></svg>
