<svg id="Layer_1" data-name="Layer 1" xmlns="http://www.w3.org/2000/svg" viewBox="0 0 368.35 133.29"><title>astros-laptop</title><polygon points="195.54 44.84 174.01 17.92 126.32 34.84 139.39 44.84 168.62 31.76 189.39 49.45 195.54 44.84" fill="#678192"/><polygon points="173.24 24.07 192.07 47.44 195.54 44.84 174.01 17.92 126.32 34.84 129.02 36.91 173.24 24.07" fill="#e1e5ec"/><path d="M314.76,32.53s.77,7.69-3.84,5.38S294,27.15,294,27.15l-.77-19.23S311.69,28.68,314.76,32.53Z" fill="#678192"/><path d="M294,19.45c0-8.46.77-13.07-2.31-17.69s-9.23.77-10.77,5.39-4.61,16.92-10,19.23-28.46.77-37.69,4.61-3.84,6.92-13.84,7.69-30.77,0-41.54,3.85-17.69,3.85-23.84.77-24.62-15.38-36.15-16.15S84.78,45.61,84.78,45.61l38.49,32.65a46.51,46.51,0,0,0,28.37,11l107.74,4s18.46-44.62,22.31-53.85,3.85-9.23,7.69-3.84,11.54,16.15,13.08,7.69C302.46,43.3,294,27.92,294,19.45ZM254.77,61l-31.54-5.38L264,43.3Z" fill="#678192"/><ellipse cx="92.47" cy="27.93" rx="25.38" ry="26.1" fill="#e5eaf0"/><circle cx="92.47" cy="30.99" r="25.38" fill="#9aacb8"/><path d="M109.18,33.41c0,12.13-9.27,22-20.71,22s-20.72-9.84-20.72-22S78.67,12.1,90.11,12.1,109.18,21.27,109.18,33.41Z" fill="#d74f5a"/><path d="M97.83,51.44a21.23,21.23,0,0,0,11.35-19C109.18,20.79,101,12,89.75,12c-8.7,0-17.1,5-20,13C72.37,35.22,80,45.23,97.83,51.44Z" fill="#b93440"/><circle cx="125.93" cy="41.38" r="26.54" fill="#e5eaf0"/><path d="M147.08,45.22c0,13.81-10.84,25-24.22,25S98.63,59,98.63,45.22,111.4,21,124.78,21,147.08,31.42,147.08,45.22Z" fill="#d74f5a"/><path d="M133.6,67.63a25.09,25.09,0,0,0,13.48-22.41C147.08,31.42,137.39,21,124,21c-10.34,0-20.31,5.92-23.79,15.32C103.37,48.46,112.38,60.3,133.6,67.63Z" fill="#b93440"/><polygon points="4.68 22.39 0.64 22.64 0 96.87 4.35 97.34 4.68 22.39" fill="#678192"/><polygon points="1.24 93.72 56.14 97.12 56.42 101.6 0.72 96.82 1.24 93.72" fill="#678192"/><polygon points="17.96 29.31 4.68 22.39 3.75 94.27 56.19 97.87 64.04 88.28 18.04 84.93 17.96 29.31" fill="#879daa"/><polygon points="64.04 88.28 64.17 91.73 56.42 101.6 56.17 97.59 64.04 88.28" fill="#678192"/><path d="M38.6,88.23a1.92,1.92,0,0,1-1.5-2.83,1.07,1.07,0,0,1,.89-.58c1.46,0,31.57-2.55,31.57-2.55l5.69,5.56s-1.29,4.42-4.88,6-10.73,5.49-10.73,5.49-1.81-4.1,1-5.41a6.42,6.42,0,0,0,3.66-4.26c.43-1.75.26-1.85-2.64-1.75C59.21,88,44.25,88.85,38.6,88.23Z" fill="#e7ebf2"/><polygon points="117.38 64.44 73.9 90.8 67.04 82.31 95.26 57.24 117.38 64.44" fill="#678192"/><path d="M358.61,64.07c-6.92,1.53-18.46,7.69-23.85,6.92s-8.46,2.31-9.23,5.38-32.3,38.46-32.3,38.46l-8.46-1.54-20-21.53-.24-1.52,37.16-5.41s21.54-6.92,21.54-10.76S327.84,61.76,334,59.45s15.39-3.08,22.31-3.08,5.38-10.76-.77-11.53-23.07-1.54-27.69-4.62-8.46,2.31-8.46,4.62,1.54,8.46-.77,10L261.69,72.53h0S184.77,48.68,174,47.14s-22.31-2.3-22.31-2.3S134-2.85,101.7,31.76c0,0,16.92-8.46,27.69,3.85s-4.61,29.23-4.61,29.23h-4.1l-2.38.89a13,13,0,0,1-8.14-.13,11,11,0,0,1-5.38-3.84l-2.31-3.08S74,57.91,67.86,57.14,44,51.76,37.09,51.76c-6.15,0-4.61,2.31-4.61,2.31s1.54.77,7.69.77c1.54,0,3.08.77,2.31,1.53-1.22,1.22-.77.77-1.54,2.31a9.46,9.46,0,0,0-.77,6.16c.77,2.3,0,6.15,10.77,5.38a38.49,38.49,0,0,0,14.23-3.53l-.39,5.84s75.38,3.07,82.3,5.38,9.23,6.16,20.77,10c7,2.33,22.68,5.5,36.05,7.81,1.94,4.48,5,12.34,3.95,14.5-1.54,3.07-1.54,6.15-3.85,7.69s-4.61,4.61-6.15,6.15,3.08,2.31,4.62.77,3.07-3.84,5.38-5.38,2.31,1.54,3.08,2.3,0,3.85-.77,3.85-2.31-2.31-2.31-2.31-2.31.77-1.54,2.31,4.62,4.62,4.62,4.62,15.38.76,16.15,0,3.08-2.31,3.08-7.7-.77-6.15-2.31-7.69-7.69-11.54-7.69-13.07c0-.49-.16-1.88-.36-3.56,1.69.23,3.13.39,4.2.48,0,0,23.08,21.54,41.54,26.15s34.61,8.46,34.61,8.46,7.69,0,10.77-4.61,36.15-46.15,36.15-46.15,13.85-6.93,19.23-10.77S365.53,62.53,358.61,64.07Z" fill="#9aacb8"/><path d="M317.65,56.67s-43,17.39-52.46,16.71-51-14.72-51-14.72,8.91-3.3,24.26,2.54,24.65,8.09,33.5,5.57,33.13-11,39.41-10.55Z" fill="#e1e5ec"/><path d="M263.27,95.82s14.47,15.53,18.49,18,8.84,4.9,13.67-1.64,26.52-27,28.13-29.44-1.61-4.9-4-2.45-27.33,27-31.35,29.44-11.25-4.09-13.66-6.54-6.43-9.82-8.85-11.45S260.86,93.36,263.27,95.82Z" fill="#e1e5ec"/><path d="M193.43,73.67c-8.22-2.06-26-6-36.35-4.22v2.31s32.31,0,36.16,4.61,15.38,33.85,15.38,33.85l16.15,1.54v-3.08l-14.61-1.54S196.17,74.35,193.43,73.67Z" fill="#ced5de"/></svg>
